<?xml version="1.0" encoding="utf-8"?>
<!-- Generator: Adobe Illustrator 22.0.0, SVG Export Plug-In . SVG Version: 6.00 Build 0)  -->
<svg version="1.1" id="Слой_1" xmlns="http://www.w3.org/2000/svg" xmlns:xlink="http://www.w3.org/1999/xlink" x="0px" y="0px"
	 viewBox="0 0 100 100" style="enable-background:new 0 0 100 100;" xml:space="preserve">
<style type="text/css">
	.st0{fill:url(#SVGID_1_);}
	.st1{fill:url(#SVGID_2_);}
	.st2{fill:url(#SVGID_3_);}
	.st3{fill:url(#SVGID_4_);}
	.st4{fill:url(#SVGID_5_);}
	.st5{fill:url(#SVGID_6_);}
	.st6{fill:url(#SVGID_7_);}
	.st7{fill:#223C50;}
	.st8{fill:url(#SVGID_8_);}
	.st9{fill:url(#SVGID_9_);}
	.st10{fill:url(#SVGID_10_);}
	.st11{fill:url(#SVGID_11_);}
	.st12{fill:url(#SVGID_12_);}
	.st13{fill:url(#SVGID_13_);}
</style>
<g>
	<g>
		<g>

				<linearGradient id="SVGID_1_" gradientUnits="userSpaceOnUse" x1="33.3018" y1="71.567" x2="39.4685" y2="70.7337" gradientTransform="matrix(-0.9981 6.104882e-02 6.104882e-02 0.9981 90.7187 -2.7717)">
				<stop  offset="0" style="stop-color:#816852"/>
				<stop  offset="1" style="stop-color:#d6aa81"/>
			</linearGradient>
			<path class="st0" d="M51.3,81.4l4.5-13.6c0.1-0.4,1-3.7-2.1-8c-0.7-0.9-0.8-2.2-0.5-3.3l0.2-0.7l0.9,0.3l5.8,1.9l0.8,0.2l1.6,0.6
				l0.8,0.2l1.4,0.5l0.1,0c0.6,0.2,0.9,0.9,0.7,1.5l-7.4,22.5c-0.2,0.6-0.9,0.9-1.5,0.7l-2.1-0.7c-0.1,0-0.2,0-0.2-0.1l-2.4-0.8
				C51.5,82.7,51.1,82.1,51.3,81.4z"/>
			<g>

					<linearGradient id="SVGID_2_" gradientUnits="userSpaceOnUse" x1="38.8014" y1="73.8184" x2="42.6481" y2="73.8184" gradientTransform="matrix(-0.9981 6.104882e-02 6.104882e-02 0.9981 90.7187 -2.7717)">
					<stop  offset="0" style="stop-color:#816852"/>
					<stop  offset="1" style="stop-color:#d6aa81"/>
				</linearGradient>
				<path class="st1" d="M52.8,75l1.3-4c0.2-0.7,0.9-1,1.6-0.8l0.1,0c0.4,0.3,0.6,0.8,0.5,1.4l-1.4,4.2c-0.2,0.6-0.9,0.9-1.5,0.7
					l-0.1,0C52.9,76.2,52.7,75.6,52.8,75z"/>
			</g>
		</g>
		<g>

				<linearGradient id="SVGID_3_" gradientUnits="userSpaceOnUse" x1="21.2937" y1="55.9256" x2="17.1687" y2="59.8006" gradientTransform="matrix(-0.9981 6.104882e-02 6.104882e-02 0.9981 90.7187 -2.7717)">
				<stop  offset="0" style="stop-color:#816852"/>
				<stop  offset="1" style="stop-color:#d6aa81"/>
			</linearGradient>
			<path class="st2" d="M66.4,55l2.8-8.5l4.9,1.6c1.4,0.5,2.5,1.5,3.1,2.8c0.3,0.6,0.4,1.2,0.4,1.8c0,0.6-0.1,1.3-0.3,1.9
				c-0.9,2.7-3.8,4.2-6.5,3.3L66,56.3L66.4,55z"/>

				<linearGradient id="SVGID_4_" gradientUnits="userSpaceOnUse" x1="20.8614" y1="55.4654" x2="16.7364" y2="59.3404" gradientTransform="matrix(-0.9981 6.104882e-02 6.104882e-02 0.9981 90.7187 -2.7717)">
				<stop  offset="0" style="stop-color:#816852"/>
				<stop  offset="1" style="stop-color:#d6aa81"/>
			</linearGradient>
			<path class="st3" d="M69.2,46.5l4.9,1.6c1.4,0.5,2.5,1.5,3.1,2.8c0,0,0,0.1,0,0.2c0,0.6-0.1,1.3-0.3,1.9
				c-0.9,2.7-3.8,4.2-6.5,3.3l-4-1.3L69.2,46.5z"/>

				<linearGradient id="SVGID_5_" gradientUnits="userSpaceOnUse" x1="20.6459" y1="55.236" x2="16.5209" y2="59.111" gradientTransform="matrix(-0.9981 6.104882e-02 6.104882e-02 0.9981 90.7187 -2.7717)">
				<stop  offset="0" style="stop-color:#816852"/>
				<stop  offset="1" style="stop-color:#d6aa81"/>
			</linearGradient>
			<path class="st4" d="M69.5,47.5l4.4,1.5c1.1,0.3,2,1.1,2.4,2.1c0,0,0,0.1,0,0.1c0,0.5,0,1-0.2,1.5c-0.7,2.1-3,3.2-5.1,2.5
				L67.4,54L69.5,47.5z"/>
		</g>
		<g>
			<linearGradient id="SVGID_6_" gradientUnits="userSpaceOnUse" x1="47.6674" y1="71.1866" x2="48.8341" y2="48.8533">
				<stop  offset="0" style="stop-color:#012b4d"/>
				<stop  offset="1" style="stop-color:#e6e6e6"/>
			</linearGradient>
			<path class="st5" d="M26.9,52.7L31.4,39l5.8-17.7c0,0,1.3,1.5,4.1,3.8c4.6,3.9,13.1,10.2,25.4,15.2c3,1.3,4.9,4.1,5.1,7.1
				c0.1,1-0.1,2-0.4,3l-1,3.2c-1.3,4-5.6,6.4-9.7,5.4c-12-3-22-3.2-28.2-2.9c-4.4,0.2-6.9,0.7-6.9,0.7L26.9,52.7z"/>
			<linearGradient id="SVGID_7_" gradientUnits="userSpaceOnUse" x1="53.0206" y1="38.1544" x2="48.6456" y2="48.6544">
				<stop  offset="0" style="stop-color:#e6e6e6"/>
				<stop  offset="0.2502" style="stop-color:#D3EEF6"/>
				<stop  offset="1" style="stop-color:#AED8E6"/>
			</linearGradient>
			<path class="st6" d="M66.7,40.3c-12.3-5-20.8-11.2-25.4-15.2c-2.7-2.3-4.1-3.8-4.1-3.8L31.4,39l-4.5,13.7c1-0.2,3.2-0.5,6.3-0.6
				c6.2-0.3,16.2-0.1,28.2,2.9c4.1,1.1,8.3-1.3,9.7-5.4l0.7-2.2C71.6,44.4,69.7,41.6,66.7,40.3z"/>
		</g>
		<g>
			<path class="st7" d="M17.5,34.5c3.2-9.6,11-15.8,17.9-14.5c0.4,0.1,0.8,0.2,1.2,0.3c7.2,2.3,10.3,12.5,7,22.7
				c-3.4,10.2-11.9,16.5-19.1,14.2c-0.4-0.1-0.7-0.3-1.1-0.4C17,53.8,14.4,44.2,17.5,34.5z"/>

				<linearGradient id="SVGID_8_" gradientUnits="userSpaceOnUse" x1="51.5769" y1="46.8761" x2="63.0769" y2="37.8761" gradientTransform="matrix(-0.9981 6.104882e-02 6.104882e-02 0.9981 90.7187 -2.7717)">
				<stop  offset="0" style="stop-color:#012b4d"/>
				<stop  offset="1" style="stop-color:#e6e6e6"/>
			</linearGradient>
			<path class="st8" d="M17.5,34.5c3.2-9.6,11-15.8,17.9-14.5c6.4,3,9,12.7,5.9,22.3c-3.2,9.6-11,15.8-17.9,14.5
				C17,53.8,14.4,44.2,17.5,34.5z"/>
		</g>
		<g>
			<path class="st7" d="M17.6,34.6c3.1-9.4,9.9-15.9,15.6-15.2c0.4,0.1,0.9,0.1,1.3,0.3c6,2,8.2,11.8,4.9,22
				C36,51.9,28.5,58.6,22.4,56.6c-3.3-1.1-5.4-4.5-6.2-9.1C15.6,43.8,16,39.2,17.6,34.6z"/>

				<linearGradient id="SVGID_9_" gradientUnits="userSpaceOnUse" x1="53.6808" y1="35.7574" x2="77.5" y2="35.7574" gradientTransform="matrix(-0.9981 6.104882e-02 6.104882e-02 0.9981 90.7187 -2.7717)">
				<stop  offset="0" style="stop-color:#012b4d"/>
				<stop  offset="1" style="stop-color:#e6e6e6"/>
			</linearGradient>
			<path class="st9" d="M17.5,34.6c3.1-9.4,9.9-15.9,15.6-15.2c5.5,2,7.5,11.2,4.4,20.6c-3.1,9.6-10.3,15.8-15.9,14
				c-2.6-0.9-4.4-3.3-5.3-6.5C15.6,43.8,16,39.2,17.5,34.6z"/>
		</g>
		<g>
			<path class="st7" d="M19,35.1c2.6-8,8.2-13.3,12.4-12c0.9,0.3,1.6,0.8,2.2,1.5c1.8,2.2,2.5,6.2,1.8,10.8
				c-0.2,1.5-0.6,3.1-1.1,4.7s-1.1,3-1.8,4.3c-2.7,5.1-6.5,8.3-9.8,7.8c-0.2,0-0.5-0.1-0.8-0.2C17.7,50.7,16.4,43.1,19,35.1z"/>
			<linearGradient id="SVGID_10_" gradientUnits="userSpaceOnUse" x1="-5.0671" y1="34.1986" x2="33.9329" y2="39.1986">
				<stop  offset="0.185" style="stop-color:#012b4d"/>
				<stop  offset="1" style="stop-color:#e6e6e6"/>
			</linearGradient>
			<path class="st10" d="M22,36.8c2.5-7.5,7.5-12.7,11.6-12.1c1.8,2.2,2.5,6.2,1.8,10.8c-0.2,1.5-0.6,3.1-1.1,4.7s-1.1,3-1.8,4.3
				c-2.7,5.1-6.5,8.3-9.8,7.8C20.3,49.4,19.8,43.2,22,36.8z"/>
		</g>
		<g>
			<g>

					<linearGradient id="SVGID_11_" gradientUnits="userSpaceOnUse" x1="57.5374" y1="37.5612" x2="71.3868" y2="37.5612" gradientTransform="matrix(-0.9981 6.104882e-02 6.104882e-02 0.9981 90.7187 -2.7717)">
					<stop  offset="0" style="stop-color:#816852"/>
					<stop  offset="1" style="stop-color:#d6aa81"/>
				</linearGradient>
				<path class="st11" d="M22,35.6c0.4-1.3,1.2-2.2,2-2.5c0.2-0.1,0.5-0.1,0.7-0.1c0.4,0,0.7,0,1.1,0.1l5.9,1.5l3.7,0.9
					c-0.2,1.5-0.6,3.1-1.1,4.7s-1.1,3-1.8,4.3l-3.7-1.9l-5.4-2.7c-0.2-0.1-0.4-0.3-0.6-0.4c-0.3-0.2-0.6-0.5-0.8-0.8
					C21.6,37.9,21.5,36.8,22,35.6z"/>
			</g>

				<linearGradient id="SVGID_12_" gradientUnits="userSpaceOnUse" x1="73.0613" y1="35.3249" x2="69.3113" y2="34.9499" gradientTransform="matrix(-0.9981 6.104882e-02 6.104882e-02 0.9981 90.7187 -2.7717)">
				<stop  offset="0" style="stop-color:#816852"/>
				<stop  offset="1" style="stop-color:#d6aa81"/>
			</linearGradient>
			<path class="st12" d="M21.9,35.7c0.4-1.2,1.2-2.2,2-2.5c0.2-0.1,0.5-0.2,0.7-0.1c0.1,0,0.2,0,0.3,0.1c1.1,0.4,1.5,2.1,0.9,3.9
				c-0.6,1.8-2,3-3,2.6c0,0,0,0-0.1,0c-0.3-0.2-0.6-0.5-0.8-0.9C21.6,37.9,21.5,36.8,21.9,35.7z"/>
		</g>
		<g>
			<linearGradient id="SVGID_13_" gradientUnits="userSpaceOnUse" x1="77.4767" y1="58.8272" x2="37.7267" y2="29.8272">
				<stop  offset="0" style="stop-color:#012b4d"/>
				<stop  offset="1" style="stop-color:#B9D7E4"/>
			</linearGradient>
			<path class="st13" d="M62.2,55.2c0.2-0.3,0.4-0.7,0.6-1.1c1.5-3,2.3-6.1,2.7-8.7c0.5-3.1,0.4-5.3,0.4-5.3s0,0,0.1-0.1
				c0.1,0,0.2,0,0.4,0c0.3,0,0.7,0,1,0c0.2,0,0.4,0,0.6,0.1c0.1,0,0.2,0,0.3,0.1c0.3,0.1,0.5,0.1,0.8,0.2c0,0,0,0,0.1,0
				c2,0.6,3.6,2,4.6,3.9c0.4,0.9,0.7,1.9,0.8,2.9l0,0.3c-0.2,1.3-0.5,2.5-0.9,3.7c-0.3,0.9-0.6,1.8-0.9,2.6
				c-0.6,1.6-1.3,3.1-1.9,4.3c-1.3,1.4-3.1,2.4-5.2,2.5c-1.7,0.1-3.2-0.4-4.5-1.2c-0.4-0.3-0.9-0.6-1.2-0.9
				C60.8,57.6,61.5,56.4,62.2,55.2z"/>
		</g>
	</g>
</g>
</svg>
