<svg width="26" height="18" viewBox="0 0 26 18" fill="none" xmlns="http://www.w3.org/2000/svg">
<path fill-rule="evenodd" clip-rule="evenodd" d="M0 0.831362C0 0.372214 0.372214 0 0.831362 0H25.1686C25.6278 0 26 0.372214 26 0.831362C26 1.29051 25.6278 1.66272 25.1686 1.66272H0.831362C0.372213 1.66272 0 1.29051 0 0.831362ZM0 8.83136C0 8.37221 0.372214 8 0.831362 8H25.1686C25.6278 8 26 8.37221 26 8.83136C26 9.29051 25.6278 9.66273 25.1686 9.66273H0.831362C0.372213 9.66273 0 9.29051 0 8.83136ZM0.831362 16C0.372214 16 0 16.3722 0 16.8314C0 17.2905 0.372213 17.6627 0.831362 17.6627H25.1686C25.6278 17.6627 26 17.2905 26 16.8314C26 16.3722 25.6278 16 25.1686 16H0.831362Z" fill="#012b4d"/>
</svg>
