<svg fill="none" height="15" viewBox="0 0 15 15" width="15" xmlns="http://www.w3.org/2000/svg"><path d="M14.3838 5.16217L4.91371 14.6302L1.65364 14.9908C0.708794 15.0953 -0.0954035 14.2985 0.00917837 13.3466L0.369806 10.0873L9.83988 0.619244C10.6657 -0.206415 12 -0.206415 12.8223 0.619244L14.3802 2.17682C15.206 3.00248 15.206 4.34012 14.3838 5.16217ZM10.8208 6.27627L8.72554 4.18147L2.02508 10.8841L1.76183 13.2385L4.11672 12.9753L10.8208 6.27627ZM13.1576 3.40269L11.5997 1.84511C11.4519 1.69729 11.2103 1.69729 11.066 1.84511L9.95167 2.95921L12.0469 5.054L13.1613 3.93991C13.3055 3.78847 13.3055 3.55051 13.1576 3.40269Z" fill="#012b4d"></path></svg>
