<?xml version="1.0" encoding="utf-8"?>
<!-- Generator: Adobe Illustrator 22.0.0, SVG Export Plug-In . SVG Version: 6.00 Build 0)  -->
<svg version="1.1" id="Слой_1" xmlns="http://www.w3.org/2000/svg" xmlns:xlink="http://www.w3.org/1999/xlink" x="0px" y="0px"
	 viewBox="0 0 100 100" style="enable-background:new 0 0 100 100;" xml:space="preserve">
<style type="text/css">
	.st0{fill:url(#SVGID_1_);}
	.st1{fill:url(#SVGID_2_);}
	.st2{fill:#C1D6E3;}
	.st3{fill:url(#SVGID_3_);}
	.st4{fill:url(#SVGID_4_);}
	.st5{fill:url(#SVGID_5_);}
	.st6{fill:url(#SVGID_6_);}
	.st7{fill:url(#SVGID_7_);}
	.st8{fill:#E9F4FC;}
	.st9{fill:url(#SVGID_8_);}
	.st10{fill:url(#SVGID_9_);}
	.st11{fill:url(#SVGID_10_);}
	.st12{fill:url(#SVGID_11_);}
	.st13{fill:url(#SVGID_12_);}
	.st14{fill:url(#SVGID_13_);}
	.st15{fill:url(#SVGID_14_);}
	.st16{fill:url(#SVGID_15_);}
	.st17{fill:url(#SVGID_16_);}
</style>
<g>
	
		<linearGradient id="SVGID_1_" gradientUnits="userSpaceOnUse" x1="70.7801" y1="16.9591" x2="46.9619" y2="135.1681" gradientTransform="matrix(0.9963 8.577584e-02 -8.577584e-02 0.9963 -2.6819 -24.3487)">
		<stop  offset="0" style="stop-color:#DFF5FB"/>
		<stop  offset="0.2502" style="stop-color:#D3EEF6"/>
		<stop  offset="1" style="stop-color:#AED8E6"/>
	</linearGradient>
	<path class="st0" d="M61,90l-26.1-2.2c-5.4-0.5-9.4-5.2-9-10.6L31,18.4c0.1-1.2,1.1-2,2.3-1.9L74.8,20c1.2,0.1,2,1.1,1.9,2.3
		l-5.1,58.8C71.2,86.5,66.4,90.5,61,90z"/>
	
		<linearGradient id="SVGID_2_" gradientUnits="userSpaceOnUse" x1="59.8178" y1="84.1376" x2="60.4061" y2="37.3707" gradientTransform="matrix(0.9963 8.577584e-02 -8.577584e-02 0.9963 -2.6819 -24.3487)">
		<stop  offset="0" style="stop-color:#1570A3"/>
		<stop  offset="1" style="stop-color:#B9D7E4"/>
	</linearGradient>
	<path class="st1" d="M63.2,56.3l-24.6-2.1c-4.2-0.4-7.3-4.1-6.9-8.3l2.1-24.3c0.1-0.7,0.7-1.2,1.4-1.1l37.3,3.2
		c0.7,0.1,1.2,0.7,1.1,1.4l-2.1,24.3C71.1,53.5,67.4,56.6,63.2,56.3z"/>
	<path class="st2" d="M55.1,62l-10.6-0.9c-1-0.1-1.8-1-1.7-2v0c0.1-1,1-1.8,2-1.7l10.6,0.9c1,0.1,1.8,1,1.7,2v0
		C57,61.3,56.1,62.1,55.1,62z"/>
	
		<linearGradient id="SVGID_3_" gradientUnits="userSpaceOnUse" x1="40.6596" y1="86.0425" x2="50.5883" y2="86.0425" gradientTransform="matrix(0.9963 8.577584e-02 -8.577584e-02 0.9963 -2.6819 -24.3487)">
		<stop  offset="0" style="stop-color:#F28B6C"/>
		<stop  offset="1" style="stop-color:#C7586B"/>
	</linearGradient>
	<path class="st3" d="M39.7,63.7l-2.2-0.2l0.2-2.2c0-0.4-0.3-0.8-0.7-0.9l-2.4-0.2c-0.4,0-0.8,0.3-0.9,0.7l-0.2,2.2L31.4,63
		c-0.4,0-0.8,0.3-0.9,0.7L30.3,66c0,0.4,0.3,0.8,0.7,0.9l2.2,0.2l-0.2,2.2c0,0.4,0.3,0.8,0.7,0.9l2.4,0.2c0.4,0,0.8-0.3,0.9-0.7
		l0.2-2.2l2.2,0.2c0.4,0,0.8-0.3,0.9-0.7l0.2-2.4C40.5,64.1,40.2,63.7,39.7,63.7z"/>
	
		<linearGradient id="SVGID_4_" gradientUnits="userSpaceOnUse" x1="139.6887" y1="173.2858" x2="144.5428" y2="173.2858" gradientTransform="matrix(0.8576 0.5143 -0.5143 0.8576 26.069 -153.3972)">
		<stop  offset="0" style="stop-color:#F28B6C"/>
		<stop  offset="1" style="stop-color:#C7586B"/>
	</linearGradient>
	<circle class="st4" cx="58.8" cy="68.3" r="2.4"/>
	
		<linearGradient id="SVGID_5_" gradientUnits="userSpaceOnUse" x1="73.9355" y1="83.7906" x2="79.0914" y2="86.3086" gradientTransform="matrix(0.9963 8.577584e-02 -8.577584e-02 0.9963 -2.6819 -24.3487)">
		<stop  offset="0" style="stop-color:#F28B6C"/>
		<stop  offset="1" style="stop-color:#C7586B"/>
	</linearGradient>
	<circle class="st5" cx="66.3" cy="67" r="2.9"/>
	
		<linearGradient id="SVGID_6_" gradientUnits="userSpaceOnUse" x1="61.5752" y1="96.8626" x2="66.9608" y2="99.4927" gradientTransform="matrix(0.9963 8.577584e-02 -8.577584e-02 0.9963 -2.6819 -24.3487)">
		<stop  offset="0" style="stop-color:#F28B6C"/>
		<stop  offset="1" style="stop-color:#C7586B"/>
	</linearGradient>
	<path class="st6" d="M54.9,80.6l-4.1-0.4c-0.5,0-0.9-0.5-0.8-1l0.1-1c0-0.5,0.5-0.9,1-0.8l4.1,0.4c0.5,0,0.9,0.5,0.8,1l-0.1,1
		C55.8,80.3,55.4,80.6,54.9,80.6z"/>
	
		<linearGradient id="SVGID_7_" gradientUnits="userSpaceOnUse" x1="53.0438" y1="96.8626" x2="58.4294" y2="99.4927" gradientTransform="matrix(0.9963 8.577584e-02 -8.577584e-02 0.9963 -2.6819 -24.3487)">
		<stop  offset="0" style="stop-color:#F28B6C"/>
		<stop  offset="1" style="stop-color:#C7586B"/>
	</linearGradient>
	<path class="st7" d="M46.4,79.9l-4.1-0.4c-0.5,0-0.9-0.5-0.8-1l0.1-1c0-0.5,0.5-0.9,1-0.8l4.1,0.4c0.5,0,0.9,0.5,0.8,1l-0.1,1
		C47.3,79.5,46.9,79.9,46.4,79.9z"/>
	<path class="st8" d="M62.7,50.1l-22.3-1.9c-1.1-0.1-2-1.1-1.9-2.2l1.7-19.7c0.1-1.1,1.1-2,2.2-1.9l22.3,1.9c1.1,0.1,2,1.1,1.9,2.2
		L65,48.3C64.9,49.4,63.9,50.2,62.7,50.1z"/>
	<g>
		
			<linearGradient id="SVGID_8_" gradientUnits="userSpaceOnUse" x1="72.914" y1="101.3318" x2="72.9492" y2="101.719" gradientTransform="matrix(0.9963 8.577584e-02 -8.577584e-02 0.9963 -2.6819 -24.3487)">
			<stop  offset="0" style="stop-color:#1570A3"/>
			<stop  offset="1" style="stop-color:#B9D7E4"/>
		</linearGradient>
		<circle class="st9" cx="61.3" cy="83" r="0.2"/>
		
			<linearGradient id="SVGID_9_" gradientUnits="userSpaceOnUse" x1="74.3509" y1="101.3318" x2="74.3861" y2="101.719" gradientTransform="matrix(0.9963 8.577584e-02 -8.577584e-02 0.9963 -2.6819 -24.3487)">
			<stop  offset="0" style="stop-color:#1570A3"/>
			<stop  offset="1" style="stop-color:#B9D7E4"/>
		</linearGradient>
		<circle class="st10" cx="62.7" cy="83.1" r="0.2"/>
		
			<linearGradient id="SVGID_10_" gradientUnits="userSpaceOnUse" x1="75.785" y1="101.3318" x2="75.8202" y2="101.719" gradientTransform="matrix(0.9963 8.577584e-02 -8.577584e-02 0.9963 -2.6819 -24.3487)">
			<stop  offset="0" style="stop-color:#1570A3"/>
			<stop  offset="1" style="stop-color:#B9D7E4"/>
		</linearGradient>
		<circle class="st11" cx="64.1" cy="83.3" r="0.2"/>
	</g>
	<g>
		
			<linearGradient id="SVGID_11_" gradientUnits="userSpaceOnUse" x1="73.6043" y1="102.2991" x2="73.6395" y2="102.6863" gradientTransform="matrix(0.9963 8.577584e-02 -8.577584e-02 0.9963 -2.6819 -24.3487)">
			<stop  offset="0" style="stop-color:#1570A3"/>
			<stop  offset="1" style="stop-color:#B9D7E4"/>
		</linearGradient>
		<circle class="st12" cx="61.9" cy="84" r="0.2"/>
		
			<linearGradient id="SVGID_12_" gradientUnits="userSpaceOnUse" x1="75.0412" y1="102.2991" x2="75.0764" y2="102.6863" gradientTransform="matrix(0.9963 8.577584e-02 -8.577584e-02 0.9963 -2.6819 -24.3487)">
			<stop  offset="0" style="stop-color:#1570A3"/>
			<stop  offset="1" style="stop-color:#B9D7E4"/>
		</linearGradient>
		<circle class="st13" cx="63.3" cy="84.2" r="0.2"/>
		
			<linearGradient id="SVGID_13_" gradientUnits="userSpaceOnUse" x1="76.4754" y1="102.2991" x2="76.5106" y2="102.6863" gradientTransform="matrix(0.9963 8.577584e-02 -8.577584e-02 0.9963 -2.6819 -24.3487)">
			<stop  offset="0" style="stop-color:#1570A3"/>
			<stop  offset="1" style="stop-color:#B9D7E4"/>
		</linearGradient>
		<circle class="st14" cx="64.7" cy="84.3" r="0.2"/>
	</g>
	<g>
		
			<linearGradient id="SVGID_14_" gradientUnits="userSpaceOnUse" x1="72.9153" y1="103.1632" x2="72.9505" y2="103.5504" gradientTransform="matrix(0.9963 8.577584e-02 -8.577584e-02 0.9963 -2.6819 -24.3487)">
			<stop  offset="0" style="stop-color:#1570A3"/>
			<stop  offset="1" style="stop-color:#B9D7E4"/>
		</linearGradient>
		<circle class="st15" cx="61.1" cy="84.8" r="0.2"/>
		
			<linearGradient id="SVGID_15_" gradientUnits="userSpaceOnUse" x1="74.3522" y1="103.1632" x2="74.3874" y2="103.5504" gradientTransform="matrix(0.9963 8.577584e-02 -8.577584e-02 0.9963 -2.6819 -24.3487)">
			<stop  offset="0" style="stop-color:#1570A3"/>
			<stop  offset="1" style="stop-color:#B9D7E4"/>
		</linearGradient>
		<circle class="st16" cx="62.5" cy="85" r="0.2"/>
		
			<linearGradient id="SVGID_16_" gradientUnits="userSpaceOnUse" x1="75.7864" y1="103.1632" x2="75.8216" y2="103.5504" gradientTransform="matrix(0.9963 8.577584e-02 -8.577584e-02 0.9963 -2.6819 -24.3487)">
			<stop  offset="0" style="stop-color:#1570A3"/>
			<stop  offset="1" style="stop-color:#B9D7E4"/>
		</linearGradient>
		<circle class="st17" cx="64" cy="85.1" r="0.2"/>
	</g>
</g>
</svg>
