<?xml version="1.0" encoding="utf-8"?>
<!-- Generator: Adobe Illustrator 22.0.0, SVG Export Plug-In . SVG Version: 6.00 Build 0)  -->
<svg version="1.1" id="Слой_1" xmlns="http://www.w3.org/2000/svg" xmlns:xlink="http://www.w3.org/1999/xlink" x="0px" y="0px"
	 viewBox="0 0 100 100" style="enable-background:new 0 0 100 100;" xml:space="preserve">
<style type="text/css">
	.st0{fill:url(#SVGID_1_);}
	.st1{fill:url(#SVGID_2_);}
	.st2{fill:url(#SVGID_3_);}
	.st3{fill:#012b4d;}
	.st4{fill:url(#SVGID_4_);}
</style>
<g>
	<g>
		<linearGradient id="SVGID_1_" gradientUnits="userSpaceOnUse" x1="33.4565" y1="49.5497" x2="68.1567" y2="49.5497">
			<stop  offset="0" style="stop-color:#e6e6e6"/>
			<stop  offset="0.2502" style="stop-color:#D3EEF6"/>
			<stop  offset="1" style="stop-color:#AED8E6"/>
		</linearGradient>
		<path class="st0" d="M53,49.5c0-2.5,2.6-4.2,10.2-12c7.6-7.8,4.3-17.9,4.3-17.9H51.4h-1.1H34.2c0,0-3.3,10.1,4.3,17.9
			s10.2,9.5,10.2,12s-2.6,4.2-10.2,12s-4.3,17.9-4.3,17.9h16.1h1.1h16.1c0,0,3.3-10.1-4.3-17.9C55.6,53.7,53,52.1,53,49.5z"/>
		<linearGradient id="SVGID_2_" gradientUnits="userSpaceOnUse" x1="66.8479" y1="-23.4331" x2="17.9081" y2="102.561">
			<stop  offset="0" style="stop-color:#816852"/>
			<stop  offset="1" style="stop-color:#d6aa81"/>
		</linearGradient>
		<path class="st1" d="M71,21.1H30.3c-1.2,0-2.2-1-2.2-2.2v-1.5c0-1.2,1-2.2,2.2-2.2H71c1.2,0,2.2,1,2.2,2.2v1.5
			C73.2,20.1,72.2,21.1,71,21.1z"/>
		<linearGradient id="SVGID_3_" gradientUnits="userSpaceOnUse" x1="88.0844" y1="-16.5757" x2="39.1445" y2="109.4183">
			<stop  offset="0" style="stop-color:#816852"/>
			<stop  offset="1" style="stop-color:#d6aa81"/>
		</linearGradient>
		<path class="st2" d="M71.2,82.3H30.5c-1.2,0-2.2-1-2.2-2.2v-1.5c0-1.2,1-2.2,2.2-2.2h40.7c1.2,0,2.2,1,2.2,2.2v1.5
			C73.3,81.4,72.3,82.3,71.2,82.3z"/>
	</g>
	<path class="st3" d="M36.9,32.5c0.6,1.8,1.7,3.6,3.3,5.3c6.5,6.7,10.1,8.1,10.1,10.2h1c0-2.1,3.6-3.6,10.1-10.2
		c0.9-0.9,1.6-1.9,2.2-2.9C51,35.1,41.7,33.6,36.9,32.5z"/>
	<polygon class="st3" points="36.9,75.4 63.6,75.4 50.8,67.8 	"/>
	<polygon class="st3" points="50.3,48.1 50.8,67.8 51.3,48.1 	"/>
	<linearGradient id="SVGID_4_" gradientUnits="userSpaceOnUse" x1="78.3457" y1="24.2619" x2="38.2996" y2="34.1038">
		<stop  offset="0" style="stop-color:#e6e6e6"/>
		<stop  offset="0.2502" style="stop-color:#D3EEF6"/>
		<stop  offset="1" style="stop-color:#AED8E6"/>
	</linearGradient>
	<path class="st4" d="M66.3,22.6c0,0,0.9,4.5-1.6,9.7h-2.6c0,0,2.8-4.8,3.2-9.2L66.3,22.6z"/>
</g>
</svg>
