<?xml version="1.0" encoding="utf-8"?>
<!-- Generator: Adobe Illustrator 22.0.0, SVG Export Plug-In . SVG Version: 6.00 Build 0)  -->
<svg version="1.1" id="Слой_1" xmlns="http://www.w3.org/2000/svg" xmlns:xlink="http://www.w3.org/1999/xlink" x="0px" y="0px"
	 viewBox="0 0 100 100" style="enable-background:new 0 0 100 100;" xml:space="preserve">
<style type="text/css">
	.st0{fill:url(#SVGID_1_);}
	.st1{fill:#E6F5FC;}
	.st2{fill:url(#SVGID_2_);}
	.st3{fill:#A9C0D0;}
	.st4{fill:url(#SVGID_3_);}
	.st5{fill:#F7F8DE;}
</style>
<g>
	<g>
		<g>
			
				<linearGradient id="SVGID_1_" gradientUnits="userSpaceOnUse" x1="19.0358" y1="50.2362" x2="73.7239" y2="50.2362" gradientTransform="matrix(1 -7.527056e-03 7.527056e-03 1 2.4467 1.4274)">
				<stop  offset="0" style="stop-color:#1570A3"/>
				<stop  offset="1" style="stop-color:#B9D7E4"/>
			</linearGradient>
			<path class="st0" d="M76.2,35.3l-5.5-9.2c-0.3-0.4-0.7-0.7-1.2-0.9l-31.4-7.9c-1-0.3-2,0.4-2.3,1.4L22.1,73.6
				c-0.3,1,0.4,2,1.4,2.3l38.9,9.4c1,0.2,2-0.4,2.3-1.4l11.8-47.2C76.5,36.2,76.4,35.7,76.2,35.3z"/>
			<path class="st1" d="M76.6,35.9L70,34.3C69,34,68.4,33,68.6,32l1.6-6.6L76.6,35.9z"/>
		</g>
	</g>
	<g>
		<g>
			
				<linearGradient id="SVGID_2_" gradientUnits="userSpaceOnUse" x1="-37.0745" y1="3.8757" x2="17.6137" y2="3.8757" gradientTransform="matrix(0.97 -0.2429 0.2429 0.97 52.6048 44.0457)">
				<stop  offset="0" style="stop-color:#DFF5FB"/>
				<stop  offset="1" style="stop-color:#AED8E6"/>
			</linearGradient>
			<path class="st2" d="M66.5,28.2L59,20.6c-0.3-0.4-0.8-0.6-1.3-0.6l-32.4-0.3c-1,0-1.9,0.8-1.9,1.9L23,78.2c0,1,0.8,1.9,1.9,1.9
				h40c1,0,1.9-0.8,1.9-1.9l0.3-48.7C67.1,29,66.9,28.6,66.5,28.2z"/>
			<path class="st1" d="M67.1,28.8l-6.8-0.1c-1,0-1.9-0.9-1.9-1.9l0.1-6.8L67.1,28.8z"/>
		</g>
	</g>
	<path class="st3" d="M52.8,35.2H30.3c-0.7,0-1.3-0.6-1.3-1.3v-0.1c0-0.7,0.6-1.3,1.3-1.3h22.5c0.7,0,1.3,0.6,1.3,1.3v0.1
		C54.1,34.6,53.5,35.2,52.8,35.2z"/>
	<g>
		<path class="st3" d="M46.6,40.5H29.2c-0.1,0-0.2-0.1-0.2-0.2v0c0-0.1,0.1-0.2,0.2-0.2h17.4c0.1,0,0.2,0.1,0.2,0.2v0
			C46.8,40.4,46.7,40.5,46.6,40.5z"/>
		<path class="st3" d="M46.6,42.5H29.2c-0.1,0-0.2-0.1-0.2-0.2v0c0-0.1,0.1-0.2,0.2-0.2h17.4c0.1,0,0.2,0.1,0.2,0.2v0
			C46.8,42.4,46.7,42.5,46.6,42.5z"/>
		<path class="st3" d="M61.2,40.5h-9.9c-0.1,0-0.2-0.1-0.2-0.2v0c0-0.1,0.1-0.2,0.2-0.2h9.9c0.1,0,0.2,0.1,0.2,0.2v0
			C61.4,40.4,61.3,40.5,61.2,40.5z"/>
		<path class="st3" d="M61.2,42.5h-9.9c-0.1,0-0.2-0.1-0.2-0.2v0c0-0.1,0.1-0.2,0.2-0.2h9.9c0.1,0,0.2,0.1,0.2,0.2v0
			C61.4,42.4,61.3,42.5,61.2,42.5z"/>
	</g>
	<g>
		<path class="st3" d="M46.6,44.6H29.2c-0.1,0-0.2-0.1-0.2-0.2v0c0-0.1,0.1-0.2,0.2-0.2h17.4c0.1,0,0.2,0.1,0.2,0.2v0
			C46.8,44.5,46.7,44.6,46.6,44.6z"/>
		<path class="st3" d="M46.6,46.6H29.2c-0.1,0-0.2-0.1-0.2-0.2v0c0-0.1,0.1-0.2,0.2-0.2h17.4c0.1,0,0.2,0.1,0.2,0.2v0
			C46.8,46.5,46.7,46.6,46.6,46.6z"/>
		<path class="st3" d="M61.2,44.6h-9.9c-0.1,0-0.2-0.1-0.2-0.2v0c0-0.1,0.1-0.2,0.2-0.2h9.9c0.1,0,0.2,0.1,0.2,0.2v0
			C61.4,44.5,61.3,44.6,61.2,44.6z"/>
		<path class="st3" d="M61.2,46.6h-9.9c-0.1,0-0.2-0.1-0.2-0.2v0c0-0.1,0.1-0.2,0.2-0.2h9.9c0.1,0,0.2,0.1,0.2,0.2v0
			C61.4,46.5,61.3,46.6,61.2,46.6z"/>
	</g>
	<g>
		<path class="st3" d="M46.7,48.8H29.3c-0.1,0-0.2-0.1-0.2-0.2v0c0-0.1,0.1-0.2,0.2-0.2h17.4c0.1,0,0.2,0.1,0.2,0.2v0
			C46.9,48.7,46.8,48.8,46.7,48.8z"/>
		<path class="st3" d="M46.7,50.8H29.3c-0.1,0-0.2-0.1-0.2-0.2v0c0-0.1,0.1-0.2,0.2-0.2h17.4c0.1,0,0.2,0.1,0.2,0.2v0
			C46.9,50.7,46.8,50.8,46.7,50.8z"/>
		<path class="st3" d="M61.3,48.8h-9.9c-0.1,0-0.2-0.1-0.2-0.2v0c0-0.1,0.1-0.2,0.2-0.2h9.9c0.1,0,0.2,0.1,0.2,0.2v0
			C61.5,48.7,61.4,48.8,61.3,48.8z"/>
		<path class="st3" d="M61.3,50.8h-9.9c-0.1,0-0.2-0.1-0.2-0.2v0c0-0.1,0.1-0.2,0.2-0.2h9.9c0.1,0,0.2,0.1,0.2,0.2v0
			C61.5,50.7,61.4,50.8,61.3,50.8z"/>
	</g>
	<path class="st3" d="M56,53.6H38.6c-0.1,0-0.2-0.1-0.2-0.2v0c0-0.1,0.1-0.2,0.2-0.2H56c0.1,0,0.2,0.1,0.2,0.2v0
		C56.2,53.6,56.1,53.6,56,53.6z"/>
	<path class="st3" d="M47.1,56.5H29.7c-0.1,0-0.2-0.1-0.2-0.2v0c0-0.1,0.1-0.2,0.2-0.2h17.4c0.1,0,0.2,0.1,0.2,0.2v0
		C47.3,56.4,47.2,56.5,47.1,56.5z"/>
	<path class="st3" d="M47.1,59.4H29.7c-0.1,0-0.2-0.1-0.2-0.2v0c0-0.1,0.1-0.2,0.2-0.2h17.4c0.1,0,0.2,0.1,0.2,0.2v0
		C47.3,59.3,47.2,59.4,47.1,59.4z"/>
	<path class="st3" d="M37.8,62.3h-8.1c-0.1,0-0.2-0.1-0.2-0.2v0c0-0.1,0.1-0.2,0.2-0.2h8.1c0.1,0,0.2,0.1,0.2,0.2v0
		C38.1,62.2,38,62.3,37.8,62.3z"/>
	<linearGradient id="SVGID_3_" gradientUnits="userSpaceOnUse" x1="57.7587" y1="56.5722" x2="64.1695" y2="66.9897">
		<stop  offset="0" style="stop-color:#F28B6C"/>
		<stop  offset="1" style="stop-color:#C7586B"/>
	</linearGradient>
	<path class="st4" d="M75.4,75.1H52.9c-1,0-1.8-0.8-1.8-1.8V60.8c0-1,0.8-1.8,1.8-1.8h22.5c1,0,1.8,0.8,1.8,1.8v12.4
		C77.3,74.2,76.4,75.1,75.4,75.1z"/>
	<g>
		<path class="st3" d="M75.7,71.2H71c-0.1,0-0.2-0.1-0.2-0.2v0c0-0.1,0.1-0.2,0.2-0.2h4.7c0.1,0,0.2,0.1,0.2,0.2v0
			C75.9,71.1,75.8,71.2,75.7,71.2z"/>
		<path class="st3" d="M75.7,71.9H71c-0.1,0-0.2-0.1-0.2-0.2v0c0-0.1,0.1-0.2,0.2-0.2h4.7c0.1,0,0.2,0.1,0.2,0.2v0
			C75.9,71.8,75.8,71.9,75.7,71.9z"/>
		<path class="st3" d="M75.7,72.7H71c-0.1,0-0.2-0.1-0.2-0.2v0c0-0.1,0.1-0.2,0.2-0.2h4.7c0.1,0,0.2,0.1,0.2,0.2v0
			C75.9,72.6,75.8,72.7,75.7,72.7z"/>
	</g>
	<path class="st3" d="M68.4,69.4H53.2c-0.1,0-0.3-0.1-0.3-0.3v-1.4c0-0.1,0.1-0.3,0.3-0.3h15.2c0.1,0,0.3,0.1,0.3,0.3v1.4
		C68.6,69.3,68.5,69.4,68.4,69.4z"/>
	<rect x="51.1" y="62.3" class="st5" width="26.2" height="3.4"/>
</g>
</svg>
