<?xml version="1.0" encoding="utf-8"?>
<!-- Generator: Adobe Illustrator 22.0.0, SVG Export Plug-In . SVG Version: 6.00 Build 0)  -->
<svg version="1.1" id="Слой_1" xmlns="http://www.w3.org/2000/svg" xmlns:xlink="http://www.w3.org/1999/xlink" x="0px" y="0px"
	 viewBox="0 0 100 100" style="enable-background:new 0 0 100 100;" xml:space="preserve">
<style type="text/css">
	.st0{fill:url(#SVGID_1_);}
	.st1{fill:#A9C0D0;}
	.st2{fill:url(#SVGID_2_);}
	.st3{fill:#E9F4FC;}
	.st4{fill:url(#SVGID_3_);}
	.st5{fill:url(#SVGID_4_);}
	.st6{fill:url(#SVGID_5_);}
	.st7{fill:#FCF6D2;}
	.st8{fill:#426FA0;}
	.st9{fill:url(#SVGID_6_);}
	.st10{fill:#C1D6E3;}
</style>
<g>
	<linearGradient id="SVGID_1_" gradientUnits="userSpaceOnUse" x1="41.1692" y1="96.8394" x2="47.0025" y2="62.3394">
		<stop  offset="0" style="stop-color:#1570A3"/>
		<stop  offset="1" style="stop-color:#B9D7E4"/>
	</linearGradient>
	<path class="st0" d="M77.1,74.2l-39.7,11c-1.9,0.5-3.9-0.6-4.5-2.5l-14.4-52c-0.5-1.9,0.6-3.9,2.5-4.5l39.7-11
		c1.9-0.5,3.9,0.6,4.5,2.5l14.4,52C80.1,71.7,79,73.7,77.1,74.2z"/>
	<path class="st1" d="M39.7,16.6c-1.8,0.5-2.9,2.4-2.4,4.2s2.4,2.9,4.2,2.4s2.9-2.4,2.4-4.2S41.5,16.1,39.7,16.6z M41.1,21.8
		c-1.1,0.3-2.2-0.3-2.4-1.4c-0.3-1.1,0.3-2.2,1.4-2.4c1.1-0.3,2.2,0.3,2.4,1.4C42.7,20.4,42.1,21.5,41.1,21.8z"/>
	<linearGradient id="SVGID_2_" gradientUnits="userSpaceOnUse" x1="61.6867" y1="40.3222" x2="19.52" y2="71.6555">
		<stop  offset="0" style="stop-color:#DFF5FB"/>
		<stop  offset="0.2502" style="stop-color:#D3EEF6"/>
		<stop  offset="0.5559" style="stop-color:#C4E5EF"/>
		<stop  offset="1" style="stop-color:#AED8E6"/>
	</linearGradient>
	<polygon class="st2" points="23.3,29.9 60.2,17.3 77.3,67.7 40.4,80.3 	"/>
	
		<rect x="29.5" y="23.7" transform="matrix(0.9636 -0.2674 0.2674 0.9636 -11.6644 14.9312)" class="st3" width="39" height="53.2"/>
	
		<linearGradient id="SVGID_3_" gradientUnits="userSpaceOnUse" x1="-63.11" y1="64.3001" x2="-38.5248" y2="64.3001" gradientTransform="matrix(0.9636 -0.2674 -0.2674 -0.9636 108.0431 72.8761)">
		<stop  offset="0" style="stop-color:#F28B6C"/>
		<stop  offset="1" style="stop-color:#C7586B"/>
	</linearGradient>
	<path class="st4" d="M53.5,27.2l-20.2,5.6c-1,0.3-2-0.3-2.3-1.3l-2-7.4c-0.3-1,0.3-2,1.3-2.3l20.2-5.6c1-0.3,2,0.3,2.3,1.3l2.1,7.4
		C55,25.9,54.5,26.9,53.5,27.2z"/>
	
		<linearGradient id="SVGID_4_" gradientUnits="userSpaceOnUse" x1="-49.4916" y1="75.8" x2="-50.7041" y2="68.8593" gradientTransform="matrix(0.9636 -0.2674 -0.2674 -0.9636 108.0431 72.8761)">
		<stop  offset="0" style="stop-color:#F28B6C"/>
		<stop  offset="1" style="stop-color:#C7586B"/>
	</linearGradient>
	<path class="st5" d="M50.5,16.2l-20.3,5.6C29.3,22.1,28.7,23,29,24l23.7-6.6C52.4,16.5,51.5,16,50.5,16.2z"/>
	<g>
		
			<linearGradient id="SVGID_5_" gradientUnits="userSpaceOnUse" x1="121.2665" y1="464.9677" x2="122.0191" y2="482.2775" gradientTransform="matrix(0.9564 0.2919 -0.2919 0.9564 87.2008 -436.6055)">
			<stop  offset="0" style="stop-color:#F28B6C"/>
			<stop  offset="1" style="stop-color:#C7586B"/>
		</linearGradient>
		<polygon class="st6" points="64.1,67.6 57.2,65.4 68.3,29.2 75.2,31.3 		"/>
		<polygon class="st7" points="57.2,65.4 58.8,72.6 64.1,67.6 		"/>
		<polygon class="st8" points="57.8,68.5 61.9,69.7 58.8,72.6 		"/>
		<rect x="48.9" y="47.1" transform="matrix(0.292 -0.9564 0.9564 0.292 1.3619 99.5165)" class="st8" width="38" height="3.5"/>
		
			<linearGradient id="SVGID_6_" gradientUnits="userSpaceOnUse" x1="54.4225" y1="539.735" x2="61.3723" y2="539.735" gradientTransform="matrix(0.9989 -4.586698e-02 4.586698e-02 0.9989 -10.8527 -506.7497)">
			<stop  offset="0" style="stop-color:#1570A3"/>
			<stop  offset="1" style="stop-color:#B9D7E4"/>
		</linearGradient>
		<path class="st9" d="M75.2,31.3l-7-2.1l0,0c0.2-0.8,1.1-1.3,1.9-1l3.9,1.2C75,29.6,75.5,30.5,75.2,31.3L75.2,31.3z"/>
	</g>
	<path class="st10" d="M57.5,32.2l-25.2,7c-0.4,0.1-0.8-0.1-0.9-0.5l0,0c-0.1-0.4,0.1-0.8,0.5-0.9l25.2-7c0.4-0.1,0.8,0.1,0.9,0.5
		l0,0C58.1,31.7,57.9,32,57.5,32.2z"/>
	<path class="st10" d="M58.8,36.6l-25.2,7c-0.4,0.1-0.8-0.1-0.9-0.5l0,0c-0.1-0.4,0.1-0.8,0.5-0.9l25.2-7c0.4-0.1,0.8,0.1,0.9,0.5
		l0,0C59.4,36.1,59.1,36.5,58.8,36.6z"/>
	<path class="st10" d="M60.1,41l-25.2,7c-0.4,0.1-0.8-0.1-0.9-0.5l0,0c-0.1-0.4,0.1-0.8,0.5-0.9l25.2-7c0.4-0.1,0.8,0.1,0.9,0.5l0,0
		C60.7,40.5,60.4,40.9,60.1,41z"/>
	<path class="st10" d="M61.2,45.5l-25.2,7c-0.4,0.1-0.8-0.1-0.9-0.5l0,0c-0.1-0.4,0.1-0.8,0.5-0.9l25.2-7c0.4-0.1,0.8,0.1,0.9,0.5
		l0,0C61.8,45,61.6,45.4,61.2,45.5z"/>
</g>
</svg>
